<svg fill="none" viewBox="0 0 24 24" xmlns="http://www.w3.org/2000/svg"><path clip-rule="evenodd" d="M22 7.207c0-1.336-1.616-2.005-2.56-1.06l-3.147 3.146A1 1 0 0 0 16 10v4a1 1 0 0 0 .293.707l3.146 3.147c.945.945 2.561.275 2.561-1.061V7.207Z" fill="#e31414" fill-rule="evenodd" class="fill-000000"></path><path clip-rule="evenodd" d="M2 8a3 3 0 0 1 3-3h10a3 3 0 0 1 3 3v8a3 3 0 0 1-3 3H5a3 3 0 0 1-3-3V8Zm2.793 4.707L5.5 12l-.707.707.001.002.003.002.008.008.026.025.093.09a14.655 14.655 0 0 0 1.495 1.23c.888.634 2.24 1.436 3.581 1.436 1.342 0 2.693-.802 3.581-1.436a14.642 14.642 0 0 0 1.588-1.32l.026-.025.008-.008.003-.002v-.001L14.5 12l.707.707a1 1 0 0 0 0-1.414L14.5 12l.707-.707-.002-.002-.002-.002-.008-.008-.026-.025a9.718 9.718 0 0 0-.43-.396c-.283-.25-.685-.586-1.158-.924C12.693 9.302 11.341 8.5 10 8.5c-1.342 0-2.693.802-3.581 1.436a14.662 14.662 0 0 0-1.588 1.32l-.026.025-.008.008-.003.002v.001L5.5 12l-.707-.707a1 1 0 0 0 0 1.414Zm2.788-.27A12.04 12.04 0 0 1 7.01 12c.172-.14.365-.288.572-.436.862-.616 1.76-1.064 2.419-1.064.658 0 1.557.448 2.419 1.064.207.148.4.297.572.436-.172.14-.365.288-.572.436-.862.616-1.76 1.064-2.419 1.064-.658 0-1.557-.448-2.419-1.064Z" fill="#e31414" fill-rule="evenodd" class="fill-000000"></path></svg>
