<?xml version="1.0" ?><!DOCTYPE svg  PUBLIC '-//W3C//DTD SVG 1.1//EN'  'http://www.w3.org/Graphics/SVG/1.1/DTD/svg11.dtd'><svg xmlns="http://www.w3.org/2000/svg" xmlns:xlink="http://www.w3.org/1999/xlink" version="1.1" id="Layer_1" width="20px" height="20px" stroke-width="2px" viewBox="0 0 512 512" enable-background="new 0 0 512 512" xml:space="preserve"><path d="M256.004,498.5c-43.512,0-86.001-11.589-123.213-33.564L44.283,482.4c-4.087,0.805-8.312-0.477-11.259-3.425  c-2.947-2.947-4.231-7.169-3.425-11.259l17.465-88.509C20.628,334.402,9.239,281.393,14.96,229.354  c5.993-54.527,30.696-105.959,69.56-144.821C130.325,38.727,191.224,13.5,255.998,13.5c64.775,0,125.671,25.227,171.471,71.033  c45.805,45.798,71.031,106.694,71.031,171.469c0,64.774-25.227,125.673-71.032,171.479C381.671,473.278,320.777,498.5,256.004,498.5  z M135.116,439.236c2.308,0,4.587,0.639,6.576,1.87c34.256,21.192,73.784,32.394,114.312,32.394  c58.096,0,112.711-22.621,153.786-63.697c41.084-41.084,63.71-95.705,63.71-153.801c0-58.096-22.626-112.714-63.709-153.792  C368.712,61.125,314.095,38.5,255.998,38.5s-112.717,22.626-153.801,63.71c-71.718,71.717-84.591,181.963-31.304,268.098  c1.661,2.685,2.245,5.898,1.634,8.996l-14.791,74.959l74.96-14.791C133.499,439.314,134.31,439.236,135.116,439.236z M285.47,335  c-2.776,0-5.562-0.92-7.866-2.788l-58.979-47.787l-109.933,38.862c-5.507,1.949-11.624-0.18-14.739-5.118  c-3.115-4.939-2.395-11.377,1.734-15.506l121.995-121.995c4.525-4.526,11.737-4.902,16.709-0.872l58.967,47.79l109.945-38.867  c5.506-1.947,11.625,0.179,14.739,5.118c3.115,4.939,2.395,11.377-1.734,15.506L294.312,331.338  C291.884,333.766,288.683,335,285.47,335z M221.055,257.808c2.824,0,5.61,0.957,7.87,2.788l55.67,45.105l75.021-75.021  l-64.525,22.811c-4.099,1.448-8.658,0.665-12.036-2.074l-55.657-45.107l-75.021,75.02l64.513-22.806  C218.247,258.042,219.655,257.808,221.055,257.808z" style="stroke-width:2px"/></svg>
