<svg viewBox="0 0 19.05 19.05" xmlns="http://www.w3.org/2000/svg"><g opacity="1"><g transform="matrix(1.07367 0 0 1.07367 -7.454 -2.394)" stroke-width="2"><path d="M9.922 3.993c-.674 0-1.216.542-1.216 1.216v11.784c0 .673.542 1.215 1.216 1.215h5.868a1.191 1.191 0 0 0 .84-.346l5.843-5.802a1.516 1.516 0 0 0 .448-1.076V5.21c0-.674-.542-1.216-1.216-1.216z" style="font-variation-settings:normal" fill="none" fill-opacity="1" fill-rule="evenodd" stroke="gray" stroke-width=".465691" stroke-linecap="round" stroke-linejoin="round" stroke-miterlimit="4" stroke-dasharray="none" stroke-dashoffset="0" stroke-opacity="1" paint-order="markers fill stroke" stop-color="#ffffff" class="strokegray stop-color-000000"></path><path d="M16.286 18.097V13.21c0-.907.73-1.637 1.637-1.637v0H22.8" style="font-variation-settings:normal" fill="none" fill-opacity="1" fill-rule="evenodd" stroke="gray" stroke-width=".465691" stroke-linecap="round" stroke-linejoin="round" stroke-miterlimit="4" stroke-dasharray="none" stroke-dashoffset="0" stroke-opacity="1" paint-order="markers fill stroke" stop-color="#ffffff" class="strokegray stop-color-000000"></path><circle cx="13.805" cy="8.055" style="font-variation-settings:normal" r=".737" fill="gray" fill-opacity="1" fill-rule="evenodd" stroke="gray" stroke-width=".465691" stroke-linecap="round" stroke-linejoin="round" stroke-miterlimit="4" stroke-dasharray="none" stroke-dashoffset="0" stroke-opacity="1" paint-order="markers fill stroke" stop-color="#ffffff" class="fillgray strokegray stop-color-000000"></circle><circle cx="18.119" cy="8.055" style="font-variation-settings:normal" r=".737" fill="gray" fill-opacity="1" fill-rule="evenodd" stroke="gray" stroke-width=".465691" stroke-linecap="round" stroke-linejoin="round" stroke-miterlimit="4" stroke-dasharray="none" stroke-dashoffset="0" stroke-opacity="1" paint-order="markers fill stroke" stop-color="#ffffff" class="fillgray strokegray stop-color-000000"></circle><path d="M16.286 14.514a4.197 4.198 0 0 1-.324.012 4.197 4.198 0 0 1-3.652-2.128" style="font-variation-settings:normal" fill="#ffffff" fill-opacity="2" fill-rule="evenodd" stroke="#ffffff" stroke-width=".4762" stroke-linecap="round" stroke-linejoin="round" stroke-miterlimit="5" stroke-dasharray="none" stroke-dashoffset="0" stroke-opacity="2" paint-order="markers fill stroke" stop-color="#ffffff" class="strokewhite stop-color-ffffff"></path></g></g></svg>
