<svg viewBox="0 0 128 128" xml:space="preserve" xmlns="http://www.w3.org/2000/svg"><path d="M111.374 20.922A17.463 17.463 0 0 0 99 15.797H29a17.474 17.474 0 0 0-12.375 5.125A17.466 17.466 0 0 0 11.5 33.297v40.038a17.47 17.47 0 0 0 5.125 12.375A17.466 17.466 0 0 0 29 90.835h70a17.466 17.466 0 0 0 12.375-5.125 17.466 17.466 0 0 0 5.125-12.375V33.296a17.462 17.462 0 0 0-5.126-12.374zm-6.75 58.037A7.905 7.905 0 0 1 99 81.289H29a7.91 7.91 0 0 1-5.625-2.33 7.91 7.91 0 0 1-2.33-5.625V33.296a7.91 7.91 0 0 1 2.33-5.625A7.908 7.908 0 0 1 29 25.341h70a7.91 7.91 0 0 1 5.625 2.33 7.907 7.907 0 0 1 2.329 5.625v40.038a7.905 7.905 0 0 1-2.33 5.625z" fill="#ffffff" class="fill-232323"></path><path d="M77.519 50.744 57.45 39.161a2.956 2.956 0 0 0-1.483-.397A2.963 2.963 0 0 0 53 41.73v23.171a2.966 2.966 0 0 0 4.45 2.57l20.069-11.586a2.968 2.968 0 0 0 0-5.141zM118.75 102c0 2.606-2.07 4.719-4.624 4.719H13.873c-2.553 0-4.623-2.112-4.623-4.719 0-2.606 2.07-4.719 4.623-4.719h100.253c2.554 0 4.624 2.113 4.624 4.719z" fill="#ffffff" stroke-width="20px" class="fill-000000"></path></svg>
