<svg viewBox="0 0 64 64" xmlns="http://www.w3.org/2000/svg"><g data-name="filled outline"><rect height="50" rx="5" transform="rotate(90 32 34.5)" width="41" x="11.5" y="9.5" fill="#ffffff" class="fill-ffffff"></rect><path d="M7 24v-5a5 5 0 0 1 5-5h40a5 5 0 0 1 5 5v5Z" fill="#f74055" class="fill-1394f6"></path><path d="M20 19a2 2 0 0 1-2-2v-6a2 2 0 0 1 4 0v6a2 2 0 0 1-2 2ZM44 19a2 2 0 0 1-2-2v-6a2 2 0 0 1 4 0v6a2 2 0 0 1-2 2Z" fill="#ffffff" class="fill-ffffff"></path><path transform="rotate(90 26.5 34.5)" d="M24 32h5v5h-5z" fill="#a4a4ac" class="fill-a4a4ac"></path><path transform="rotate(90 37.5 34.5)" d="M35 32h5v5h-5z" fill="#a4a4ac" class="fill-a4a4ac"></path><path transform="rotate(90 48.5 34.5)" d="M46 32h5v5h-5z" fill="#a4a4ac" class="fill-a4a4ac"></path><path transform="rotate(90 37.5 45.5)" d="M35 43h5v5h-5z" fill="#a4a4ac" class="fill-a4a4ac"></path><path transform="rotate(90 15.5 45.5)" d="M13 43h5v5h-5z" fill="#a4a4ac" class="fill-a4a4ac"></path><path transform="rotate(90 26.5 45.5)" d="M24 43h5v5h-5z" fill="#a4a4ac" class="fill-a4a4ac"></path><circle cx="53" cy="51" r="8" fill="#f74055" class="fill-1394f6"></circle><path d="M58 52h-4v4h-2v-4h-4v-2h4v-4h2v4h4ZM34 42h7v7h-7Zm2 5h3v-3h-3Zm5-9h-7v-7h7Zm-2-5h-3v3h3ZM12 49v-7h7v7Zm2-2h3v-3h-3Zm31-16h7v7h-7Zm2 5h3v-3h-3Zm15 15a9 9 0 0 1-16.48 5H12a6 6 0 0 1-6-6V19a6 6 0 0 1 6-6h5v-2a3 3 0 0 1 6 0v2h18v-2a3 3 0 0 1 6 0v2h5a6 6 0 0 1 6 6v24.52A9 9 0 0 1 62 51Zm-5-8.07h.09ZM43 17a1 1 0 0 0 2 0v-6a1 1 0 0 0-2 0Zm-24 0a1 1 0 0 0 2 0v-6a1 1 0 0 0-2 0ZM8 24h48v-5a4 4 0 0 0-4-4h-5v2a3 3 0 0 1-6 0v-2H23v2a3 3 0 0 1-6 0v-2h-5a4 4 0 0 0-4 4Zm36.52 30A9 9 0 0 1 56 42.52V26H8v24a4 4 0 0 0 4 4Zm.48 1.07a.93.93 0 0 0 0-.1.93.93 0 0 1 0 .1ZM60 51a7 7 0 1 0-7 7 7 7 0 0 0 7-7ZM30 38h-7v-7h7Zm-2-5h-3v3h3Zm-5 9h7v7h-7Zm2 5h3v-3h-3Z" fill="#000000" class="fill-000000"></path></g></svg>
