<svg viewBox="0 0 104.9 96.17" xmlns="http://www.w3.org/2000/svg"><g data-name="Layer 2"><g data-name="Layer 1"><path d="M27.32 76.5a16.37 16.37 0 0 1-15.49-11.16l-.15-.5a16 16 0 0 1-.76-4.74V30.3L.32 65.7a9.93 9.93 0 0 0 7 12l67.59 18.1a10 10 0 0 0 2.52.32 9.75 9.75 0 0 0 9.4-7.12l3.94-12.5ZM39.34 30.6a8.74 8.74 0 1 0-8.74-8.74 8.75 8.75 0 0 0 8.74 8.74Z" fill="#75e640" class="fill-000000"></path><path d="M94 0H28.41a10.94 10.94 0 0 0-10.93 10.93V59a10.94 10.94 0 0 0 10.93 10.94H94A10.94 10.94 0 0 0 104.9 59V10.93A10.94 10.94 0 0 0 94 0ZM28.41 8.74H94a2.19 2.19 0 0 1 2.19 2.19V42L82.35 25.85a7.83 7.83 0 0 0-5.86-2.69 7.64 7.64 0 0 0-5.84 2.76L54.42 45.4l-5.29-5.28a7.67 7.67 0 0 0-10.84 0L26.22 52.19V10.93a2.19 2.19 0 0 1 2.19-2.19Z" fill="#75e640" class="fill-000000"></path></g></g></svg>
